<?xml version="1.0" encoding="UTF-8" standalone="no"?>
<!DOCTYPE svg PUBLIC "-//W3C//DTD SVG 1.1//EN"
 "http://www.w3.org/Graphics/SVG/1.1/DTD/svg11.dtd">
<!-- Generated by graphviz version 2.38.0 (20140413.2041)
 -->
<!-- Title: CameraShakeExample Pages: 1 -->
<svg width="127pt" height="154pt"
 viewBox="0.00 0.00 126.83 154.00" xmlns="http://www.w3.org/2000/svg" xmlns:xlink="http://www.w3.org/1999/xlink">
<g id="graph0" class="graph" transform="scale(1 1) rotate(0) translate(4 150)">
<title>CameraShakeExample</title>
<!-- Node1 -->
<g id="node1" class="node"><title>Node1</title>
<polygon fill="#bfbfbf" stroke="black" points="0,-0.5 0,-54.5 118.827,-54.5 118.827,-0.5 0,-0.5"/>
<text text-anchor="middle" x="59.4136" y="-42.5" font-family="Helvetica,sans-Serif" font-size="10.00">CameraShakeExample</text>
<polyline fill="none" stroke="black" points="0,-36.5 118.827,-36.5 "/>
<text text-anchor="middle" x="59.4136" y="-24.5" font-family="Helvetica,sans-Serif" font-size="10.00"> </text>
<polyline fill="none" stroke="black" points="0,-18.5 118.827,-18.5 "/>
<text text-anchor="middle" x="59.4136" y="-6.5" font-family="Helvetica,sans-Serif" font-size="10.00"> </text>
</g>
<!-- Node2 -->
<g id="node2" class="node"><title>Node2</title>
<polygon fill="none" stroke="#bfbfbf" points="16.3916,-91.5 16.3916,-145.5 102.436,-145.5 102.436,-91.5 16.3916,-91.5"/>
<text text-anchor="middle" x="59.4136" y="-133.5" font-family="Helvetica,sans-Serif" font-size="10.00">MonoBehaviour</text>
<polyline fill="none" stroke="#bfbfbf" points="16.3916,-127.5 102.436,-127.5 "/>
<text text-anchor="middle" x="59.4136" y="-115.5" font-family="Helvetica,sans-Serif" font-size="10.00"> </text>
<polyline fill="none" stroke="#bfbfbf" points="16.3916,-109.5 102.436,-109.5 "/>
<text text-anchor="middle" x="59.4136" y="-97.5" font-family="Helvetica,sans-Serif" font-size="10.00"> </text>
</g>
<!-- Node2&#45;&gt;Node1 -->
<g id="edge1" class="edge"><title>Node2&#45;&gt;Node1</title>
<path fill="none" stroke="midnightblue" d="M59.4136,-81.1155C59.4136,-72.2061 59.4136,-62.8475 59.4136,-54.5341"/>
<polygon fill="none" stroke="midnightblue" points="55.9137,-81.2784 59.4136,-91.2784 62.9137,-81.2785 55.9137,-81.2784"/>
</g>
</g>
</svg>
