<?xml version="1.0" encoding="UTF-8" standalone="no"?>
<!DOCTYPE svg PUBLIC "-//W3C//DTD SVG 1.1//EN"
 "http://www.w3.org/Graphics/SVG/1.1/DTD/svg11.dtd">
<!-- Generated by graphviz version 2.38.0 (20140413.2041)
 -->
<!-- Title: Graphical Class Hierarchy Pages: 1 -->
<svg width="349pt" height="27pt"
 viewBox="0.00 0.00 348.68 27.00" xmlns="http://www.w3.org/2000/svg" xmlns:xlink="http://www.w3.org/1999/xlink">
<g id="graph0" class="graph" transform="scale(1 1) rotate(0) translate(4 23)">
<title>Graphical Class Hierarchy</title>
<!-- Node1 -->
<g id="node1" class="node"><title>Node1</title>
<polygon fill="none" stroke="#bfbfbf" points="0,-0.5 0,-18.5 86.0439,-18.5 86.0439,-0.5 0,-0.5"/>
<text text-anchor="middle" x="43.022" y="-6.5" font-family="Helvetica,sans-Serif" font-size="10.00">MonoBehaviour</text>
</g>
<!-- Node2 -->
<g id="node2" class="node"><title>Node2</title>
<g id="a_node2"><a xlink:href="class_thinksquirrel_1_1_utilities_1_1_camera_shake_base.html" target="_top" xlink:title="The base class for all Camera Shake components. ">
<polygon fill="none" stroke="black" points="122.044,-0.5 122.044,-18.5 224.758,-18.5 224.758,-0.5 122.044,-0.5"/>
<text text-anchor="middle" x="173.401" y="-6.5" font-family="Helvetica,sans-Serif" font-size="10.00">CameraShakeBase</text>
</a>
</g>
</g>
<!-- Node1&#45;&gt;Node2 -->
<g id="edge1" class="edge"><title>Node1&#45;&gt;Node2</title>
<path fill="none" stroke="midnightblue" d="M96.1761,-9.5C104.622,-9.5 113.357,-9.5 121.766,-9.5"/>
<polygon fill="midnightblue" stroke="midnightblue" points="96.0581,-6.0001 86.058,-9.5 96.058,-13.0001 96.0581,-6.0001"/>
</g>
<!-- Node3 -->
<g id="node3" class="node"><title>Node3</title>
<g id="a_node3"><a xlink:href="class_thinksquirrel_1_1_utilities_1_1_camera_shake.html" target="_top" xlink:title="Shakes the camera and UI. ">
<polygon fill="none" stroke="black" points="260.758,-0.5 260.758,-18.5 340.679,-18.5 340.679,-0.5 260.758,-0.5"/>
<text text-anchor="middle" x="300.718" y="-6.5" font-family="Helvetica,sans-Serif" font-size="10.00">CameraShake</text>
</a>
</g>
</g>
<!-- Node2&#45;&gt;Node3 -->
<g id="edge2" class="edge"><title>Node2&#45;&gt;Node3</title>
<path fill="none" stroke="midnightblue" d="M235.086,-9.5C243.721,-9.5 252.406,-9.5 260.485,-9.5"/>
<polygon fill="midnightblue" stroke="midnightblue" points="235.011,-6.0001 225.011,-9.5 235.011,-13.0001 235.011,-6.0001"/>
</g>
</g>
</svg>
