<?xml version="1.0" encoding="UTF-8" standalone="no"?>
<!DOCTYPE svg PUBLIC "-//W3C//DTD SVG 1.1//EN"
 "http://www.w3.org/Graphics/SVG/1.1/DTD/svg11.dtd">
<!-- Generated by graphviz version 2.38.0 (20140413.2041)
 -->
<!-- Title: Graphical Class Hierarchy Pages: 1 -->
<svg width="342pt" height="28pt"
 viewBox="0.00 0.00 342.00 28.00" xmlns="http://www.w3.org/2000/svg" xmlns:xlink="http://www.w3.org/1999/xlink">
<g id="graph0" class="graph" transform="scale(1 1) rotate(0) translate(4 24)">
<title>Graphical Class Hierarchy</title>
<!-- Node1 -->
<g id="node1" class="node"><title>Node1</title>
<polygon fill="none" stroke="#bfbfbf" points="0,-0.5 0,-19.5 83,-19.5 83,-0.5 0,-0.5"/>
<text text-anchor="middle" x="41.5" y="-7.5" font-family="Helvetica,sans-Serif" font-size="10.00">MonoBehaviour</text>
</g>
<!-- Node2 -->
<g id="node2" class="node"><title>Node2</title>
<g id="a_node2"><a xlink:href="class_thinksquirrel_1_1_c_shake_1_1_camera_shake_base.html" target="_top" xlink:title="The base class for all Camera Shake components. ">
<polygon fill="none" stroke="black" points="119,-0.5 119,-19.5 220,-19.5 220,-0.5 119,-0.5"/>
<text text-anchor="middle" x="169.5" y="-7.5" font-family="Helvetica,sans-Serif" font-size="10.00">CameraShakeBase</text>
</a>
</g>
</g>
<!-- Node1&#45;&gt;Node2 -->
<g id="edge1" class="edge"><title>Node1&#45;&gt;Node2</title>
<path fill="none" stroke="midnightblue" d="M93.1559,-10C101.592,-10 110.336,-10 118.75,-10"/>
<polygon fill="midnightblue" stroke="midnightblue" points="93.0608,-6.5001 83.0608,-10 93.0607,-13.5001 93.0608,-6.5001"/>
</g>
<!-- Node3 -->
<g id="node3" class="node"><title>Node3</title>
<g id="a_node3"><a xlink:href="class_thinksquirrel_1_1_c_shake_1_1_camera_shake.html" target="_top" xlink:title="Shakes the camera and UI. ">
<polygon fill="none" stroke="black" points="256,-0.5 256,-19.5 334,-19.5 334,-0.5 256,-0.5"/>
<text text-anchor="middle" x="295" y="-7.5" font-family="Helvetica,sans-Serif" font-size="10.00">CameraShake</text>
</a>
</g>
</g>
<!-- Node2&#45;&gt;Node3 -->
<g id="edge2" class="edge"><title>Node2&#45;&gt;Node3</title>
<path fill="none" stroke="midnightblue" d="M230.208,-10C238.944,-10 247.733,-10 255.878,-10"/>
<polygon fill="midnightblue" stroke="midnightblue" points="230.021,-6.5001 220.021,-10 230.021,-13.5001 230.021,-6.5001"/>
</g>
</g>
</svg>
